<?xml version="1.0" encoding="utf-8"?>
<!-- Generator: Adobe Illustrator 24.3.0, SVG Export Plug-In . SVG Version: 6.00 Build 0)  -->
<svg version="1.1" id="Layer_1" xmlns="http://www.w3.org/2000/svg" xmlns:xlink="http://www.w3.org/1999/xlink" x="0px" y="0px"
	 viewBox="0 0 141.7 141.7" style="enable-background:new 0 0 141.7 141.7;" xml:space="preserve">
<style type="text/css">
	.st0{fill:#1A1C22;}
</style>
<g>
	<path class="st0" d="M127.8,72c0-31.4-25.5-56.8-57-56.8c-31.5,0-57,25.5-57,56.8c0,25.1,16.3,46.3,38.8,53.9l0.1-12.1
		c-3.8,0.8-8.5,0-8.5,0c-8-1.6-9-12.1-9-12.1c-1.8-5-4.9-3.6-4.9-3.6c-1.1-0.4,0-1.8,0-1.8c1.9-0.8,3.7,0,3.7,0
		c2.1,0.2,5.4,5.6,5.4,5.6c4.8,6.9,10.3,5.5,10.3,5.5c3.6,0.7,4-2.7,4-2.7c0.8-7.4,5-8.4,5-8.4c3.5-1.8-0.6-1.8-0.6-1.8
		C37.9,93.3,36.1,75,36.1,75C34.9,60.9,43,56.7,43,56.7l0.1-16.9C52.3,40.4,58,47,58,47c11.1-2,12.8-1.4,12.8-1.4
		c5.7,0,11.9,1.1,11.9,1.1c6.3-7.7,13.6-6.8,13.6-6.8v17.7c8.1,5.9,6.4,20,6.4,20c-3.5,16.1-21.7,17.2-21.7,17.2
		c-1.6,0.2,0.1,1.7,0.1,1.7c6.4,4,5.6,11.4,5.6,11.4v18.8C110.5,119.7,127.8,97.9,127.8,72z"/>
</g>
</svg>
