<?xml version="1.0" encoding="utf-8"?>
<!-- Generator: Adobe Illustrator 24.3.0, SVG Export Plug-In . SVG Version: 6.00 Build 0)  -->
<svg version="1.1" id="Layer_1" xmlns="http://www.w3.org/2000/svg" xmlns:xlink="http://www.w3.org/1999/xlink" x="0px" y="0px"
	 viewBox="0 0 141.7 141.7" style="enable-background:new 0 0 141.7 141.7;" xml:space="preserve">
<style type="text/css">
	.st0{fill:#1A1C22;}
</style>
<g>
	<polygon class="st0" points="40.9,66.4 51.8,66.4 46.3,53.4 	"/>
	<path class="st0" d="M115.3,17.1H25.2c-6.4,0-11.6,5.2-11.6,11.6v67c0,6.4,5.2,11.6,11.6,11.6h78.4l14.2,14.4c5.8,6.6,9.2,0,9.2,0
		v-21.3v-4.8v-1v-66C126.9,22.3,121.7,17.1,115.3,17.1z M61.6,83c-1.9,0-3.5-1.3-4.1-3l0,0l-2.1-5H37.3l-2.1,5l0,0
		c-0.6,1.7-2.2,3-4.1,3c-2.4,0-4.3-1.9-4.3-4.3c0-0.7,0.2-1.4,0.5-2l0,0l4.2-10.1v-0.2h0.1l11.2-26.6l0.1,0.1
		c0.8-1.1,2.1-1.8,3.5-1.8c1.4,0,2.7,0.7,3.5,1.8l0.1-0.1l15.5,36.9l0,0c0.3,0.6,0.5,1.3,0.5,2C65.9,81.1,64,83,61.6,83z
		 M113.6,50.3c-1.3,14.9-9.7,21.9-9.7,21.9c-1.2,1.2-2.5,2.3-3.9,3.3c1.3,0.4,2.5,0.7,3.3,0.8c0,0,0.1,0,0.1,0
		c0.4,0,0.8,0.1,1.1,0.2c0,0,0,0,0,0l0,0c1.5,0.5,2.6,1.9,2.6,3.5c0,2-1.7,3.7-3.7,3.7c-0.4,0-0.8-0.1-1.2-0.2l0,0
		c-3.8-1-7-2.3-9.9-3.8c-6.3,2.7-12,3.8-12,3.8l0,0c-0.4,0.1-0.8,0.2-1.2,0.2c-2,0-3.7-1.7-3.7-3.7c0-1.9,1.4-3.4,3.2-3.7l0-0.1
		c2.2-0.4,4.3-0.9,6.2-1.5C79,70,76.4,65.3,75.8,64c0-0.1-0.1-0.2-0.1-0.3c0,0,0,0,0,0l0,0c-0.2-0.5-0.3-1-0.3-1.6
		c0-2.4,1.9-4.3,4.3-4.3c1.4,0,2.6,0.7,3.4,1.7l0,0c0,0,0,0,0,0c0.4,0.5,0.7,1.1,0.8,1.8c2.2,4.6,5.2,7.8,8.2,10
		c8.5-5.2,11.8-12.9,13-17.6h-7h-7.4H78.5v-0.1c-2.1-0.3-3.8-2.1-3.8-4.2c0-2.2,1.6-4,3.8-4.2v-0.1h12.1v-3.3h0c0-2,1.7-3.7,3.7-3.7
		c2,0,3.7,1.7,3.7,3.7h0v3.3h11.3c2.4,0,4.3,1.9,4.3,4.3C113.7,49.7,113.7,50,113.6,50.3z"/>
</g>
</svg>
