<?xml version="1.0" encoding="utf-8"?>
<!-- Generator: Adobe Illustrator 24.3.0, SVG Export Plug-In . SVG Version: 6.00 Build 0)  -->
<svg version="1.1" id="Layer_1" xmlns="http://www.w3.org/2000/svg" xmlns:xlink="http://www.w3.org/1999/xlink" x="0px" y="0px"
	 viewBox="0 0 141.7 141.7" style="enable-background:new 0 0 141.7 141.7;" xml:space="preserve">
<style type="text/css">
	.st0{fill:#1A1C22;}
</style>
<g>
	<path class="st0" d="M70.9,11.6c-32.7,0-59.2,26.5-59.2,59.2c0,32.7,26.5,59.2,59.2,59.2s59.2-26.5,59.2-59.2
		C130.1,38.2,103.6,11.6,70.9,11.6z M47.8,36.2c4,0,7.2,3.2,7.2,7.2s-3.2,7.2-7.2,7.2s-7.2-3.2-7.2-7.2S43.8,36.2,47.8,36.2z
		 M55.1,94.8H40.5V55.3h14.6V94.8z M103.7,70.2v24.6H89.1l0-24.6c0-5.3-5.1-5.2-5.1-5.2c-5.2,0.1-5.1,5.1-5.1,5.1v24.7H64.2V55.3
		h14.6v6.5c3-7,12.4-6.5,12.4-6.5C105.1,55,103.7,70.2,103.7,70.2z"/>
</g>
</svg>
