<?xml version="1.0" encoding="utf-8"?>
<!-- Generator: Adobe Illustrator 24.3.0, SVG Export Plug-In . SVG Version: 6.00 Build 0)  -->
<svg version="1.1" id="Layer_1" xmlns="http://www.w3.org/2000/svg" xmlns:xlink="http://www.w3.org/1999/xlink" x="0px" y="0px"
	 viewBox="0 0 141.73 141.73" style="enable-background:new 0 0 141.73 141.73;" xml:space="preserve">
<style type="text/css">
	.st0{fill:#1B1C23;}
</style>
<g>
	<g>
		<path class="st0" d="M65.96,11.31c3.1,0,6.2,0,9.3,0c0.07,0.25,0.28,0.22,0.46,0.22c2.1,0.04,4.16,0.38,6.2,0.78
			c14.67,2.94,26.8,10.17,35.93,22.04c10.85,14.12,14.71,30.12,11.47,47.62c-2.73,14.71-10.15,26.79-22.02,35.93
			c-14.12,10.87-30.13,14.58-47.62,11.45c-10.31-1.84-19.49-6.3-27.44-13.16c-11.17-9.63-17.95-21.74-20.29-36.32
			c-0.22-1.38-0.12-2.81-0.67-4.14c0-3.26,0-6.51,0-9.77c0.25-0.07,0.22-0.27,0.23-0.46c0.1-1.93,0.4-3.85,0.77-5.74
			c2.02-10.27,6.3-19.48,13.14-27.44c9.64-11.21,21.76-18.02,36.39-20.36C63.2,11.75,64.63,11.85,65.96,11.31z M86.4,101.88
			c2.81,0.14,5.43-0.47,7.95-1.7c2.67-1.32,4.6-3.5,6.67-5.53c1.56-1.54,1.55-2.8-0.01-4.38c-3.42-3.44-6.84-6.87-10.27-10.29
			c-1.6-1.6-2.88-1.59-4.47,0.03c-1.88,1.9-3.73,3.84-5.63,5.72c-2.24,2.21-4.91,2.41-7.44,0.6c-6.71-4.79-12.53-10.47-17.45-17.08
			c-2.09-2.81-1.91-5.41,0.56-7.89c1.94-1.95,3.9-3.88,5.84-5.84c1.34-1.36,1.44-2.69,0.18-3.98c-3.61-3.68-7.26-7.32-10.94-10.93
			c-1.15-1.13-2.55-1.09-3.71,0.03c-1.55,1.51-3.15,3.01-4.52,4.68c-3.2,3.9-4.29,8.4-3.23,13.35c0.69,3.23,2.01,6.25,3.55,9.13
			c7.26,13.59,17.78,23.86,31.63,30.63C78.64,100.16,82.37,101.58,86.4,101.88z"/>
	</g>
</g>
</svg>
