<?xml version="1.0" encoding="utf-8"?>
<!-- Generator: Adobe Illustrator 24.3.0, SVG Export Plug-In . SVG Version: 6.00 Build 0)  -->
<svg version="1.1" id="Layer_1" xmlns="http://www.w3.org/2000/svg" xmlns:xlink="http://www.w3.org/1999/xlink" x="0px" y="0px"
	 viewBox="0 0 141.7 141.7" style="enable-background:new 0 0 141.7 141.7;" xml:space="preserve">
<style type="text/css">
	.st0{fill:#1A1C22;}
</style>
<g>
	<path class="st0" d="M127.2,33.1c-1.3-4.4-5.4-7.6-10.2-7.6H24.7c-4.8,0-8.8,3.1-10.1,7.4L71,70.9L127.2,33.1z"/>
	<path class="st0" d="M75.1,85c-0.1,0.1-0.3,0.2-0.5,0.3l-0.4,0.3l0,0c-1,0.5-2.1,0.8-3.2,0.8c-1.3,0-2.5-0.4-3.5-1l0,0l-0.3-0.2
		c-0.1,0-0.1-0.1-0.2-0.1L14,49.6v55.9c0,5.9,4.8,10.6,10.6,10.6h92.4c5.9,0,10.6-4.8,10.6-10.6V49.7L75.1,85z"/>
</g>
</svg>
