<?xml version="1.0" encoding="utf-8"?>
<!-- Generator: Adobe Illustrator 24.3.0, SVG Export Plug-In . SVG Version: 6.00 Build 0)  -->
<svg version="1.1" id="Layer_1" xmlns="http://www.w3.org/2000/svg" xmlns:xlink="http://www.w3.org/1999/xlink" x="0px" y="0px"
	 viewBox="0 0 141.7 141.7" style="enable-background:new 0 0 141.7 141.7;" xml:space="preserve">
<style type="text/css">
	.st0{fill:#FFFFFF;}
</style>
<g>
	<path class="st0" d="M67.4,90.8c0.9-2.4,1.9-4.9,2.8-7.3c0.2-0.4,0.1-0.5-0.3-0.7c-4.5-1.6-8.9-3.5-13-5.9c-1.5-0.9-3-1.7-4.5-2.7
		c0.1-0.1,0.1-0.1,0.1-0.2c8.6-9.3,14.3-20.2,17.1-32.6c0.1-0.5,0.3-0.6,0.8-0.6c3.6,0,7.2,0,10.8,0c0.4,0,0.6-0.1,0.6-0.6
		c0-2.4,0-4.7,0-7.1c0-0.5-0.1-0.6-0.6-0.6c-6.4,0-12.7,0-19.1,0c-3,0-5.9,0-8.9,0c-0.2,0-0.5,0.1-0.6-0.3c-0.3-1.2-0.8-2.3-1.3-3.5
		c-1-2.7-1.9-5.4-2.9-8.1c-0.1-0.3-0.2-0.5-0.5-0.3c-2.8,1-5.6,1.9-8.3,2.8c-0.3,0.1-0.4,0.2-0.2,0.5c0.6,1.3,1.1,2.5,1.6,3.8
		c0.7,1.7,1.3,3.3,1.9,5.1c-0.3,0-0.5,0-0.7,0c-10.7,0-21.4,0-32.1,0c-0.9,0-1.8,0-2.7,0c0,2.7,0,5.5,0,8.2c4.3,0,8.6,0,12.9,0
		c0.3,0,0.5,0.1,0.5,0.4c2.8,12.5,8.7,23.5,17.5,32.8c0,0,0,0,0,0.1c0,0.2-0.2,0.2-0.4,0.3c-9.4,5.8-19.6,10-30.3,12.7
		c-0.1,0-0.2,0-0.2,0v0.1l0.1,0.1c1.7,2.6,3.4,5.1,4.9,7.8c0.3,0.5,0.5,0.5,1,0.4c11-3.8,21.4-8.8,31.2-15c0.4-0.3,0.7-0.3,1.1,0
		c6.6,4.4,13.6,7.8,21,10.5C67,91.3,67.2,91.2,67.4,90.8z M45.6,68.2c-0.4,0.4-0.6,0.4-0.9,0C37.3,60.7,32.5,51.8,30,41.7
		c-0.1-0.5-0.1-0.7,0.5-0.7c4.9,0,9.7,0,14.6,0s9.7,0,14.6,0c0.5,0,0.6,0,0.5,0.6C58,51.9,53.2,60.8,45.6,68.2z"/>
	<path class="st0" d="M131.1,119c-9.3-23.4-18.6-46.8-27.9-70.3c-0.1-0.4-0.3-0.5-0.7-0.5c-3.6,0-7.1,0-10.7,0
		c-0.4,0-0.6,0.1-0.8,0.5c-9.2,23.4-18.5,46.7-27.8,70c-0.1,0.2-0.2,0.3-0.1,0.6c2.7,0,5.3,0,8,0c2.3,0,3.6-0.9,4.4-3
		c2-5,3.9-9.9,5.9-14.9c0.2-0.4,0.3-0.5,0.8-0.5c10,0,19.9,0,29.9,0c0.5,0,0.6,0.2,0.7,0.6c1.8,5,3.6,10.1,5.5,15.1
		c0.6,1.7,1.7,2.9,3.7,3c3.1,0.1,6.1,0,9.3,0C131.2,119.3,131.2,119.2,131.1,119z M85.2,92.9c3.9-11.2,8.7-22.1,12.1-33.3
		c3.4,10.9,7.9,21.5,11.9,32.4c0.1,0.3,0.2,0.6,0.3,0.9C101.3,92.9,93.2,92.9,85.2,92.9z"/>
</g>
</svg>
