<?xml version="1.0" encoding="utf-8"?>
<!-- Generator: Adobe Illustrator 24.3.0, SVG Export Plug-In . SVG Version: 6.00 Build 0)  -->
<svg version="1.1" id="Layer_1" xmlns="http://www.w3.org/2000/svg" xmlns:xlink="http://www.w3.org/1999/xlink" x="0px" y="0px"
	 viewBox="0 0 141.7 141.7" style="enable-background:new 0 0 141.7 141.7;" xml:space="preserve">
<style type="text/css">
	.st0{fill:#FFFFFF;}
</style>
<circle class="st0" cx="70.8" cy="70.8" r="18.1"/>
<path class="st0" d="M71,43L71,43c-1.5,0-2.8-1.2-2.8-2.8V22.5c0-1.5,1.2-2.8,2.8-2.8h0c1.5,0,2.8,1.2,2.8,2.8v17.7
	C73.7,41.8,72.5,43,71,43z"/>
<path class="st0" d="M83.8,46.2L83.8,46.2c-1.4-0.7-1.9-2.4-1.2-3.7l8.2-15.7c0.7-1.4,2.4-1.9,3.7-1.2v0c1.4,0.7,1.9,2.4,1.2,3.7
	L87.5,45C86.8,46.4,85.2,46.9,83.8,46.2z"/>
<path class="st0" d="M93.7,55L93.7,55c-0.9-1.3-0.6-3,0.7-3.9L108.9,41c1.3-0.9,3-0.6,3.9,0.7v0c0.9,1.3,0.6,3-0.7,3.9L97.6,55.7
	C96.3,56.6,94.6,56.2,93.7,55z"/>
<path class="st0" d="M98.5,67.4L98.5,67.4c-0.2-1.5,0.9-2.9,2.4-3.1l17.6-2.3c1.5-0.2,2.9,0.9,3.1,2.4v0c0.2,1.5-0.9,2.9-2.4,3.1
	l-17.6,2.3C100,69.9,98.7,68.9,98.5,67.4z"/>
<path class="st0" d="M97,80.5L97,80.5c0.5-1.4,2.1-2.2,3.5-1.6l16.7,6.1c1.4,0.5,2.2,2.1,1.6,3.5l0,0c-0.5,1.4-2.1,2.2-3.5,1.6
	L98.6,84C97.2,83.5,96.4,81.9,97,80.5z"/>
<path class="st0" d="M89.5,91.5L89.5,91.5c1.1-1,2.9-1,3.9,0.2l12,13.1c1,1.1,1,2.9-0.2,3.9h0c-1.1,1-2.9,1-3.9-0.2l-12-13.1
	C88.3,94.2,88.4,92.5,89.5,91.5z"/>
<path class="st0" d="M77.9,97.8L77.9,97.8c1.5-0.4,3,0.5,3.4,2l4.6,17.1c0.4,1.5-0.5,3-2,3.4h0c-1.5,0.4-3-0.5-3.4-2l-4.6-17.1
	C75.6,99.7,76.4,98.2,77.9,97.8z"/>
<path class="st0" d="M64.7,98L64.7,98c1.5,0.3,2.4,1.8,2.1,3.3l-3.9,17.3c-0.3,1.5-1.8,2.4-3.3,2.1h0c-1.5-0.3-2.4-1.8-2.1-3.3
	l3.9-17.3C61.7,98.6,63.2,97.7,64.7,98z"/>
<path class="st0" d="M52.8,92.1L52.8,92.1c1.2,1,1.3,2.7,0.3,3.9l-11.4,13.6c-1,1.2-2.7,1.3-3.9,0.3l0,0c-1.2-1-1.3-2.7-0.3-3.9
	l11.4-13.6C49.9,91.2,51.7,91.1,52.8,92.1z"/>
<path class="st0" d="M45.1,81.3L45.1,81.3c0.6,1.4-0.1,3-1.5,3.6l-16.4,6.8c-1.4,0.6-3-0.1-3.6-1.5h0c-0.6-1.4,0.1-3,1.5-3.6
	l16.4-6.8C42.9,79.3,44.5,79.9,45.1,81.3z"/>
<path class="st0" d="M43.1,68.2L43.1,68.2c-0.1,1.5-1.5,2.6-3,2.5l-17.7-1.6c-1.5-0.1-2.6-1.5-2.5-3l0,0c0.1-1.5,1.5-2.6,3-2.5
	l17.7,1.6C42.2,65.4,43.3,66.7,43.1,68.2z"/>
<path class="st0" d="M47.5,55.7L47.5,55.7c-0.8,1.3-2.5,1.7-3.8,0.8L28.7,47c-1.3-0.8-1.7-2.5-0.8-3.8l0,0c0.8-1.3,2.5-1.7,3.8-0.8
	l14.9,9.6C47.9,52.7,48.3,54.5,47.5,55.7z"/>
<path class="st0" d="M57.1,46.7L57.1,46.7c-1.3,0.8-3,0.3-3.8-1l-8.8-15.4c-0.8-1.3-0.3-3,1-3.8l0,0c1.3-0.8,3-0.3,3.8,1l8.8,15.4
	C58.9,44.2,58.4,45.9,57.1,46.7z"/>
</svg>
